<?xml version="1.0" standalone="no"?>
<!DOCTYPE svg PUBLIC "-//W3C//DTD SVG 20010904//EN"
 "http://www.w3.org/TR/2001/REC-SVG-20010904/DTD/svg10.dtd">
<svg version="1.0" xmlns="http://www.w3.org/2000/svg"
 width="300.000000pt" height="300.000000pt" viewBox="0 0 300.000000 300.000000"
 preserveAspectRatio="xMidYMid meet">
<metadata>
Created by potrace 1.11, written by Peter Selinger 2001-2013
</metadata>
<g transform="translate(0.000000,300.000000) scale(0.100000,-0.100000)"
fill="#000000" stroke="none">
<path d="M1369 2996 c-2 -3 -31 -7 -64 -11 -131 -12 -346 -79 -480 -148 -284
-147 -535 -402 -670 -682 -102 -213 -149 -422 -149 -660 0 -91 11 -232 19
-245 2 -3 6 -24 9 -46 24 -157 117 -377 234 -554 70 -105 259 -297 367 -372
205 -143 449 -238 685 -266 80 -10 318 -8 385 2 138 23 243 51 350 94 474 190
810 594 916 1099 19 88 23 141 23 283 0 104 -5 203 -13 245 -7 39 -15 84 -18
100 -2 17 -20 77 -39 134 -143 425 -451 752 -871 925 -62 26 -259 79 -338 91
-50 8 -340 17 -346 11z m287 -31 c108 -12 118 -14 215 -39 589 -149 1037 -668
1096 -1271 15 -151 7 -322 -23 -467 -3 -15 -5 -30 -5 -33 1 -16 -83 -242 -114
-305 -209 -426 -638 -743 -1092 -806 -192 -26 -406 -22 -523 11 -8 2 -29 7
-46 9 -58 10 -219 68 -303 109 -410 199 -704 575 -799 1018 -84 389 -7 795
212 1122 71 106 88 127 176 218 240 248 567 404 915 435 39 4 71 7 72 8 5 4
163 -2 219 -9z"/>
<path d="M1094 2291 c-2 -2 -4 -13 -4 -23 0 -13 8 -18 29 -18 32 0 61 -22 62
-48 0 -9 1 -125 1 -257 1 -270 -4 -292 -66 -340 -65 -49 -178 -44 -233 11 -17
17 -33 61 -28 76 14 43 12 78 -6 97 -25 26 -49 27 -77 1 -27 -25 -30 -105 -7
-149 22 -43 89 -96 143 -114 126 -40 300 13 349 106 24 47 25 62 28 317 2 135
4 250 4 257 2 22 32 43 61 43 32 0 40 8 31 30 -5 13 -30 15 -144 15 -76 0
-140 -2 -143 -4z"/>
<path d="M1419 2295 c-1 0 -3 -10 -4 -22 -2 -17 3 -23 19 -23 39 0 65 -12 71
-31 4 -10 7 -124 7 -251 0 -203 3 -239 19 -284 40 -107 155 -173 295 -169 129
4 235 74 271 179 14 42 17 93 19 284 1 208 3 234 19 252 10 11 31 20 47 20 22
0 28 4 28 23 0 22 -2 22 -117 21 -151 -2 -143 -1 -143 -24 0 -15 7 -20 28 -20
16 0 37 -6 48 -14 18 -13 19 -29 20 -243 1 -295 -6 -323 -102 -379 -51 -30
-125 -40 -180 -25 -59 16 -121 73 -135 124 -13 47 -17 495 -5 515 4 6 24 15
46 18 26 4 40 12 43 25 3 13 0 19 -11 20 -12 1 -227 4 -283 4z"/>
<path d="M1542 1363 c-37 -109 -38 -114 -20 -124 20 -11 48 3 48 24 0 18 49
75 82 95 35 22 115 36 142 26 14 -5 16 -40 16 -319 0 -248 -3 -315 -13 -324
-12 -10 -43 -18 -74 -20 -11 -1 -12 -25 -2 -36 4 -4 225 -9 275 -6 18 1 25 41
8 42 -8 1 -18 3 -24 4 -5 1 -19 3 -29 4 -11 0 -23 11 -27 24 -4 12 -8 156 -8
320 -1 336 -5 320 73 313 61 -6 112 -37 148 -89 17 -26 33 -51 35 -57 4 -13
48 -1 48 14 0 6 -17 57 -37 113 -37 102 -57 128 -79 99 -10 -14 -45 -16 -241
-16 -164 0 -232 3 -241 12 -29 29 -40 16 -80 -99z"/>
<path d="M954 1450 c-52 -26 -72 -48 -89 -96 -21 -63 8 -139 66 -172 16 -10
29 -19 29 -22 0 -4 -15 -11 -34 -18 -100 -36 -170 -127 -170 -221 1 -135 97
-227 249 -238 85 -7 147 11 214 60 l43 32 44 -42 c47 -45 90 -59 151 -50 121
20 175 159 94 245 -29 30 -86 30 -101 1 -17 -30 -5 -61 32 -84 38 -24 44 -54
16 -85 -16 -18 -28 -21 -55 -17 -41 7 -52 15 -88 66 l-27 40 31 65 c18 36 39
94 48 130 17 72 23 77 106 85 5 1 7 11 5 24 -3 21 -6 22 -130 22 -126 0 -128
0 -128 -22 0 -13 3 -23 8 -24 30 -2 76 -10 79 -12 16 -17 4 -88 -30 -166 l-14
-34 -32 59 c-40 73 -80 119 -134 150 -36 20 -39 24 -22 30 94 33 142 143 99
225 -40 78 -173 113 -260 69z m157 -58 c53 -47 50 -146 -6 -192 -22 -18 -85
-20 -111 -3 -50 32 -65 124 -30 178 34 51 100 59 147 17z m-68 -273 c39 -21
71 -65 131 -184 67 -132 68 -123 -29 -170 -63 -31 -118 -32 -175 -2 -63 32
-102 85 -108 145 -8 87 27 150 111 197 49 29 43 28 70 14z"/>
</g>
</svg>
